<svg viewBox="0 0 218 168" xmlns="http://www.w3.org/2000/svg" font-family="monospace" font-size="12">
  <defs>
    <marker id="arr" viewBox="0 0 10 10" refX="9" refY="5" markerWidth="7" markerHeight="7" orient="auto-start-reverse">
      <path d="M 0 0 L 10 5 L 0 10 z" fill="#333"/>
    </marker>
  </defs>
  <line x1="189" y1="13" x2="189" y2="86" stroke="#333" marker-end="url(#arr)"/>
  <line x1="164" y1="86" x2="86" y2="20" stroke="#333" marker-end="url(#arr)"/>
  <text x="125" y="47" text-anchor="middle" fill="#666" font-size="10">control = false</text>
  <line x1="86" y1="20" x2="164" y2="86" stroke="#333" marker-end="url(#arr)"/>
  <text x="125" y="47" text-anchor="middle" fill="#666" font-size="10">control = true</text>
  <line x1="164" y1="86" x2="104" y2="100" stroke="#333" marker-end="url(#arr)"/>
  <text x="134" y="87" text-anchor="middle" fill="#666" font-size="10">control dies (open)</text>
  <line x1="86" y1="20" x2="181" y2="13" stroke="#333" marker-end="url(#arr)"/>
  <text x="133" y="10" text-anchor="middle" fill="#666" font-size="10">control dies (closed)</text>
  <line x1="189" y1="86" x2="189" y2="13" stroke="#333" marker-end="url(#arr)"/>
  <text x="189" y="44" text-anchor="middle" fill="#666" font-size="10">data dies</text>
  <line x1="104" y1="100" x2="181" y2="13" stroke="#333" marker-end="url(#arr)"/>
  <text x="142" y="50" text-anchor="middle" fill="#666" font-size="10">data dies</text>
  <line x1="189" y1="86" x2="189" y2="13" stroke="#333" marker-end="url(#arr)"/>
  <text x="189" y="44" text-anchor="middle" fill="#666" font-size="10">output dies</text>
  <line x1="86" y1="20" x2="181" y2="13" stroke="#333" marker-end="url(#arr)"/>
  <text x="133" y="10" text-anchor="middle" fill="#666" font-size="10">output dies</text>
  <circle cx="189" cy="13" r="8" fill="#333" stroke="#333"/>
  <rect x="164" y="71" width="49" height="30" rx="12" fill="#d4e6f1" stroke="#888"/>
  <text x="189" y="90" text-anchor="middle">Open</text>
  <rect x="23" y="5" width="63" height="30" rx="12" fill="#d4e6f1" stroke="#888"/>
  <text x="55" y="24" text-anchor="middle">Closed</text>
  <rect x="5" y="85" width="99" height="30" rx="12" fill="#d4e6f1" stroke="#888"/>
  <text x="55" y="104" text-anchor="middle">ForwardOnly</text>
</svg>
